<?xml version="1.0" encoding="UTF-8" standalone="no"?>
<!-- Created with Inkscape (http://www.inkscape.org/) -->

<svg
   width="1024"
   height="1024"
   viewBox="0 0 270.93333 270.93334"
   version="1.1"
   id="svg5"
   inkscape:version="1.1 (c4e8f9ed74, 2021-05-24)"
   sodipodi:docname="logo.svg"
   xmlns:inkscape="http://www.inkscape.org/namespaces/inkscape"
   xmlns:sodipodi="http://sodipodi.sourceforge.net/DTD/sodipodi-0.dtd"
   xmlns:xlink="http://www.w3.org/1999/xlink"
   xmlns="http://www.w3.org/2000/svg"
   xmlns:svg="http://www.w3.org/2000/svg">
  <sodipodi:namedview
     id="namedview7"
     pagecolor="#ffffff"
     bordercolor="#666666"
     borderopacity="1.0"
     inkscape:pageshadow="2"
     inkscape:pageopacity="0.0"
     inkscape:pagecheckerboard="0"
     inkscape:document-units="mm"
     showgrid="false"
     units="px"
     width="1024px"
     inkscape:zoom="1"
     inkscape:cx="458.5"
     inkscape:cy="428.5"
     inkscape:window-width="1920"
     inkscape:window-height="1048"
     inkscape:window-x="0"
     inkscape:window-y="0"
     inkscape:window-maximized="1"
     inkscape:current-layer="layer4" />
  <defs
     id="defs2">
    <rect
       x="304.98437"
       y="182.25"
       width="546.10156"
       height="232.80469"
       id="rect18811" />
  </defs>
  <g
     inkscape:label="Layer 1"
     inkscape:groupmode="layer"
     id="layer1"
     style="display:none">
    <image
       width="256.10614"
       height="256.10614"
       preserveAspectRatio="none"
       xlink:href="../../Downloads/panic-button.png"
       id="image77"
       x="7.4135966"
       y="7.4135966" />
  </g>
  <g
     inkscape:groupmode="layer"
     id="layer2"
     inkscape:label="button"
     style="display:inline">
    <path
       style="fill:none;stroke:#000000;stroke-width:0.264583px;stroke-linecap:butt;stroke-linejoin:miter;stroke-opacity:1"
       d="m 220.45387,38.698675 c 5.22797,1.932665 10.33068,4.051984 11.60161,11.880913 V 219.29423 c -1.33141,8.60918 -6.36393,11.75264 -12.57892,13.14986 H 51.796282 C 46.183939,230.46692 40.169503,229.28289 38.73916,219.05661 V 51.033463 c 1.116619,-6.530804 4.804349,-11.163568 13.191915,-12.326828 z"
       id="path328"
       sodipodi:nodetypes="ccccccccc" />
    <path
       style="fill:none;stroke:#000000;stroke-width:0.264583px;stroke-linecap:butt;stroke-linejoin:miter;stroke-opacity:1"
       d="M 49.040406,7.4789841 H 221.68708 C 251.09231,11.893508 260.0539,29.076524 263.37123,49.784785 V 221.62639 c -5.07082,30.39915 -22.48977,38.31285 -42.33766,41.80351 H 50.168039 C 20.617361,260.081 11.768237,241.81675 7.3515679,220.35894 V 51.705078 C 10.178263,27.476988 23.273868,12.048821 49.040406,7.4789841 Z"
       id="path972"
       sodipodi:nodetypes="ccccccccc" />
    <path
       style="fill:#ff0000;stroke-width:0.91762"
       d="M 179.7524,993.31335 C 140.30445,987.34001 108.61004,973.03881 84.938872,950.53143 60.25321,927.05943 44.375115,896.54301 33.026646,850.7603 L 28.905029,834.13261 V 514.09858 c 0,-349.72406 -0.361046,-325.48501 5.197344,-348.92698 C 51.437763,92.061263 99.990194,46.672733 177.88988,30.753947 c 8.96962,-1.832939 11.85283,-1.848918 333.62379,-1.848918 322.36803,0 324.64729,0.0127 335.05968,1.866974 83.05853,14.791336 129.25402,60.61773 145.351,144.189757 l 2.35617,12.23272 -0.26005,328.50795 -0.25996,328.50795 -2.59375,10.55263 c -19.9296,81.0849 -61.05971,120.32164 -144.26628,137.62529 l -13.32279,2.77057 -321.35636,-0.0817 c -306.76207,-0.078 -321.86105,-0.15771 -332.46893,-1.7641 z M 837.00216,877.61297 c 20.81484,-6.37217 34.61271,-20.53085 39.27173,-40.29866 1.24412,-5.27865 1.40403,-42.27655 1.41606,-327.63927 0.0123,-291.82395 -0.12235,-322.15136 -1.45039,-326.67271 -4.87795,-16.60707 -15.3288,-26.79495 -36.08727,-35.17926 l -5.89333,-2.3803 h -320.4032 c -313.5169,0 -320.552,0.0381 -327.32719,1.77086 -16.20659,4.14495 -28.56936,13.5804 -34.95128,26.67536 -6.69187,13.7309 -6.13452,-16.84605 -6.13452,336.54877 0,355.48171 -0.58869,324.58874 6.46698,339.37264 5.95808,12.4841 14.95069,19.44632 34.33087,26.57948 l 8.29482,3.05302 318.08806,0.0479 318.08808,0.0479 6.29058,-1.92578 z"
       id="path1490"
       transform="scale(0.26458333)" />
    <path
       style="fill:#000000;stroke-width:0.91762"
       d="m 186.27686,874.16885 c -5.04691,-1.88742 -11.44731,-4.64979 -14.22311,-6.13862 -7.62879,-4.09177 -14.76465,-11.65933 -18.5876,-19.71209 -6.73105,-14.17846 -6.18814,15.46318 -6.18814,-337.8622 V 192.66331 l 1.90022,-6.85718 c 4.20983,-15.19167 12.52088,-25.51655 25.76967,-32.01386 14.44745,-7.08514 -15.3381,-6.51426 339.88213,-6.51426 h 318.79818 l 8.23542,3.55048 c 10.61755,4.57748 16.17326,8.18808 21.87385,14.21562 5.09475,5.38694 8.46374,11.38225 10.67983,19.00533 1.32963,4.57379 1.44216,34.62987 1.22796,328.00995 l -0.23581,322.97479 -2.53493,6.88215 c -6.32608,17.17478 -17.29851,27.3577 -36.08783,33.49116 l -7.03369,2.29602 -317.14997,-0.0515 -317.14998,-0.0515 z M 544.14865,744.732 c 51.25629,-7.7215 95.60644,-30.05925 132.19029,-66.58005 52.27259,-52.18248 76.44745,-123.71245 66.84264,-197.77789 -9.97078,-76.88744 -59.12014,-145.08402 -129.29381,-179.39998 -16.76466,-8.19817 -28.06789,-12.43905 -43.91428,-16.47628 -23.81586,-6.06765 -44.46963,-8.36477 -67.57655,-7.51588 -49.85456,1.83153 -94.66248,17.67884 -134.86009,47.69624 -11.25907,8.40766 -36.28627,33.43486 -44.69393,44.69393 -42.34389,56.70456 -57.18893,124.85123 -42.37096,194.50539 5.0911,23.9315 19.20399,56.83556 33.51319,78.13569 36.05698,53.67303 90.97145,89.90636 153.52954,101.30091 6.82031,1.24228 16.52985,2.64409 21.57676,3.11513 13.49907,1.25991 41.06908,0.41002 55.0572,-1.69721 z"
       id="path1603"
       transform="scale(0.26458333)" />
    <path
       style="fill:#ffffff;stroke-width:1.83524"
       d="m 182.48636,870.1272 c -11.79053,-5.49025 -21.69538,-14.16717 -27.52259,-24.11054 l -4.5618,-7.78413 0.50266,-327.35427 c 0.55945,-364.33576 -0.58688,-334.14193 13.14373,-346.19756 3.72045,-3.2666 10.65679,-7.89332 15.41409,-10.2816 l 8.64965,-4.34232 321.16699,-0.9432 321.16699,-0.9432 11.01144,5.52139 c 16.41299,8.22985 20.6768,11.78125 26.65148,22.19853 l 5.43077,9.46894 v 325.75509 325.75509 l -5.34517,9.31905 c -6.01713,10.4906 -15.11065,19.16966 -25.79738,24.62162 -7.14332,3.64426 -10.49236,3.68157 -328.91573,3.66382 l -321.69891,-0.0184 -9.29622,-4.32878 z M 550.70739,744.90988 c 9.51466,-1.62272 23.90624,-5.01267 31.9813,-7.53322 80.70245,-25.1906 143.90434,-96.31051 159.85053,-179.87686 4.13441,-21.66648 4.17615,-69.05337 0.0797,-90.51035 -17.15832,-89.87454 -85.20883,-161.6568 -175.55865,-185.18589 -19.48773,-5.07503 -64.32222,-7.07575 -90.19195,-4.02476 -35.89189,4.23296 -77.01331,20.69522 -105.4681,42.22236 -16.87206,12.76437 -41.18507,36.8754 -52.9928,52.55255 -17.27638,22.93791 -33.73715,60.56408 -40.79322,93.2455 -4.54207,21.03744 -4.4666,71.39063 0.1388,92.60591 18.15787,83.646 74.76616,149.21373 152.32806,176.43716 26.85986,9.42754 46.55129,12.74139 76.58057,12.8877 16.76691,0.0817 33.20105,-0.97053 44.04576,-2.8201 z"
       id="path2355"
       transform="scale(0.26458333)" />
    <path
       style="fill:#000000;stroke-width:1.83524"
       d="m 182.48636,870.1272 c -11.79053,-5.49025 -21.69538,-14.16717 -27.52259,-24.11054 l -4.5618,-7.78413 0.50266,-327.35427 c 0.55945,-364.33576 -0.58688,-334.14193 13.14373,-346.19756 3.72045,-3.2666 10.65679,-7.89332 15.41409,-10.2816 l 8.64965,-4.34232 321.16699,-0.9432 321.16699,-0.9432 11.01144,5.52139 c 16.41299,8.22985 20.6768,11.78125 26.65148,22.19853 l 5.43077,9.46894 v 325.75509 325.75509 l -5.34517,9.31905 c -6.01713,10.4906 -15.11065,19.16966 -25.79738,24.62162 -7.14332,3.64426 -10.49236,3.68157 -328.91573,3.66382 l -321.69891,-0.0184 -9.29622,-4.32878 z M 550.70739,744.90988 c 73.6101,-12.55415 136.3874,-58.78615 170.43563,-125.51639 17.68153,-34.65357 24.36548,-64.10497 24.36548,-107.36154 0,-44.33788 -6.70759,-73.03332 -25.70271,-109.95769 -33.90906,-65.91545 -104.61752,-115.84328 -175.97868,-124.26 -27.71361,-3.2687 -70.76334,-1.13534 -92.35808,4.57686 -45.47062,12.02781 -77.77198,31.22349 -112.05761,66.59235 -26.88296,27.73231 -41.58944,52.07741 -54.16933,89.67186 -16.13384,48.21528 -15.37452,104.98178 2.04937,153.20956 20.76278,57.46953 62.48138,104.88829 116.08698,131.9483 14.67414,7.40749 40.97808,16.24811 60.93727,20.48074 20.58664,4.36567 62.64724,4.66555 86.39168,0.61595 z"
       id="path2394"
       transform="scale(0.26458333)" />
  </g>
  <g
     inkscape:groupmode="layer"
     id="layer3"
     inkscape:label="raspi">
    <g
       id="g5663"
       transform="matrix(0.13701114,0,0,0.13701114,96.159455,86.209415)">
      <path
         d="m 158.375,1.65625 c -3.6193,0.1123192 -7.51715,1.4493266 -11.9375,4.9375 C 135.61054,2.4174496 125.11041,0.9665612 115.71875,9.46875 101.22489,7.5879922 96.508461,11.469494 92.9375,16 89.754953,15.934135 69.118652,12.72793 59.65625,26.84375 35.874602,24.030329 28.359472,40.831625 36.875,56.5 c -4.856911,7.518955 -9.889503,14.947226 1.46875,29.28125 -4.018006,7.983514 -1.527431,16.64403 7.9375,27.125 -2.497857,11.2226 2.412077,19.14086 11.21875,25.3125 -1.64709,15.35756 14.083505,24.28743 18.78125,27.46875 1.803677,8.94868 5.56291,17.3927 23.53125,22.0625 2.96323,13.3361 13.76206,15.63906 24.21875,18.4375 -34.561929,20.08954 -64.20067,46.52266 -64,111.375 l -5.0625,9.03125 C 15.337882,350.69604 -20.316547,428.16001 35.4375,491.125 c 3.641871,19.70838 9.749589,33.86396 15.1875,49.53125 8.133834,63.13058 61.21763,92.69161 75.21875,96.1875 20.51653,15.62812 42.36818,30.45672 71.9375,40.84375 27.87515,28.74946 58.07388,39.7064 88.4375,39.6875 0.44515,-2.8e-4 0.89853,0.005 1.34375,0 30.36363,0.0189 60.56235,-10.93804 88.4375,-39.6875 29.56932,-10.38703 51.42097,-25.21563 71.9375,-40.84375 14.00112,-3.49589 67.08492,-33.05692 75.21875,-96.1875 5.43791,-15.66729 11.54562,-29.82287 15.1875,-49.53125 55.75404,-62.96499 20.09961,-140.42896 -19.53125,-164.53125 L 513.75,317.5625 c 0.20067,-64.85234 -29.43807,-91.28546 -64,-111.375 10.45669,-2.79844 21.25552,-5.1014 24.21875,-18.4375 17.96834,-4.6698 21.72758,-13.11382 23.53125,-22.0625 4.69775,-3.18132 20.42834,-12.11119 18.78125,-27.46875 8.80668,-6.17164 13.71661,-14.0899 11.21875,-25.3125 9.46494,-10.48097 11.9555,-19.141487 7.9375,-27.125 C 546.79575,71.447226 541.76316,64.018955 536.90625,56.5 545.42178,40.831625 537.90665,24.030329 514.125,26.84375 504.6626,12.72793 484.0263,15.934135 480.84375,16 477.27279,11.469494 472.55636,7.587992 458.0625,9.46875 448.67084,0.96656132 438.17071,2.41745 427.34375,6.59375 414.48455,-3.5536631 405.97149,4.580454 396.25,7.65625 380.67615,2.568472 377.11698,9.5371578 369.46875,12.375 352.4935,8.7869238 347.33315,16.598532 339.1875,24.84375 l -9.46875,-0.1875 c -25.61054,15.093115 -38.33378,45.825501 -42.84375,61.625 -4.51206,-15.801979 -17.20647,-46.534542 -42.8125,-61.625 l -9.46875,0.1875 C 226.4481,16.598532 221.28775,8.7869235 204.3125,12.375 196.66427,9.5371583 193.1051,2.5684729 177.53125,7.65625 c -6.37973,-2.0184911 -12.24667,-6.2144276 -19.15625,-6 z"
         style="fill:#000000"
         id="path5615" />
      <path
         d="m 107.39184,68.055583 c 67.94767,35.031357 107.44689,63.368967 129.08717,87.504467 -11.08235,44.41759 -68.89638,46.44464 -90.03559,45.19858 4.32842,-2.01474 7.93988,-4.42778 9.22051,-8.13574 -5.30449,-3.76981 -24.11289,-0.39719 -37.24363,-7.77416 5.04407,-1.04499 7.40348,-2.06302 9.76289,-5.78542 -12.40571,-3.9567 -25.76862,-7.36642 -33.627746,-13.92116 4.241253,0.0524 8.201156,0.9488 13.740366,-2.89271 -11.111694,-5.98819 -22.969108,-10.73351 -32.18139,-19.88738 5.745213,-0.14063 11.939452,-0.0568 13.740371,-2.16953 -10.17044,-6.30068 -18.751242,-13.30787 -25.853592,-20.97215 8.039979,0.97052 11.435284,0.13478 13.378782,-1.26556 -7.687795,-7.87419 -17.417559,-14.52319 -22.056911,-24.22644 5.969606,2.057484 11.431249,2.84506 15.36752,-0.180795 -2.612365,-5.893453 -13.805413,-9.369618 -20.248967,-23.141676 6.284359,0.609377 12.949606,1.371108 14.282753,0 C 61.802068,58.517346 56.796919,51.835885 51.887978,44.913906 65.338021,44.714177 85.715734,44.966253 84.792549,43.82914 l -8.31654,-8.497335 c 13.137617,-3.537241 26.580651,0.568164 36.339661,3.615887 4.38186,-3.457681 -0.0776,-7.82998 -5.42383,-12.294015 11.16496,1.490646 21.25382,4.057389 30.37345,7.593362 4.87238,-4.399329 -3.16389,-8.798658 -7.05098,-13.197987 17.24936,3.272568 24.55716,7.87068 31.81981,12.47481 5.26935,-5.050799 0.30166,-9.343299 -3.2543,-13.740371 13.00566,4.817048 19.70478,11.035551 26.75756,17.175463 2.39119,-3.227053 6.07494,-5.592408 1.62715,-13.378781 9.23416,5.322725 16.18926,11.59506 21.33374,18.621817 5.71336,-3.637941 3.40387,-8.613023 3.43509,-13.197987 9.59665,7.806516 15.68687,16.11395 23.14168,24.226443 1.50169,-1.093437 2.81661,-4.80171 3.97747,-10.666867 22.89539,22.211815 55.24591,78.158241 8.31654,100.340861 C 207.95028,109.95728 160.25292,86.016909 107.39184,68.055583 Z"
         style="fill:#75a928"
         id="path5617" />
      <path
         d="M 467.92487,68.055583 C 399.9772,103.08694 360.47798,131.42455 338.8377,155.56005 c 11.08235,44.41759 68.89638,46.44464 90.03559,45.19858 -4.32842,-2.01474 -7.93988,-4.42778 -9.22051,-8.13574 5.30449,-3.76981 24.11289,-0.39719 37.24363,-7.77416 -5.04407,-1.04499 -7.40348,-2.06302 -9.76289,-5.78542 12.40571,-3.9567 25.76862,-7.36642 33.62775,-13.92116 -4.24126,0.0524 -8.20116,0.9488 -13.74037,-2.89271 11.11169,-5.98819 22.96911,-10.73351 32.18139,-19.88738 -5.74521,-0.14063 -11.93945,-0.0568 -13.74037,-2.16953 10.17044,-6.30068 18.75124,-13.30787 25.85359,-20.97215 -8.03998,0.97052 -11.43528,0.13478 -13.37878,-1.26556 7.68779,-7.87419 17.41756,-14.52319 22.05691,-24.22644 -5.96961,2.057484 -11.43125,2.84506 -15.36752,-0.180795 2.61237,-5.893453 13.80541,-9.369618 20.24897,-23.141676 -6.28436,0.609377 -12.94961,1.371108 -14.28276,0 2.92231,-11.888563 7.92746,-18.570024 12.8364,-25.492003 -13.45004,-0.199729 -33.82775,0.05235 -32.90457,-1.084766 l 8.31654,-8.497335 c -13.13762,-3.537241 -26.58065,0.568164 -36.33966,3.615887 -4.38186,-3.457681 0.0776,-7.82998 5.42383,-12.294015 -11.16496,1.490646 -21.25382,4.057389 -30.37345,7.593362 -4.87238,-4.399329 3.16389,-8.798658 7.05098,-13.197987 -17.24936,3.272568 -24.55716,7.87068 -31.81981,12.47481 -5.26935,-5.050799 -0.30166,-9.343299 3.2543,-13.740371 -13.00566,4.817048 -19.70478,11.035551 -26.75756,17.175463 -2.39119,-3.227053 -6.07494,-5.592408 -1.62715,-13.378781 -9.23416,5.322725 -16.18926,11.59506 -21.33374,18.621817 -5.71336,-3.637941 -3.40387,-8.613023 -3.43509,-13.197987 -9.59665,7.806516 -15.68687,16.11395 -23.14168,24.226443 -1.50169,-1.093437 -2.81661,-4.80171 -3.97747,-10.666867 -22.89539,22.211815 -55.24591,78.158241 -8.31654,100.340861 39.91877,-32.94716 87.61613,-56.887531 140.47721,-74.848857 z"
         style="fill:#75a928"
         id="path5619" />
      <path
         d="m 365.2046,521.84937 a 71.956155,66.532319 0 1 1 -143.91231,0 71.956155,66.532319 0 1 1 143.91231,0 z"
         transform="matrix(1.131107,0,0,1.1280497,-43.139135,-68.310983)"
         style="fill:#bc1142"
         id="path5621" />
      <path
         d="m 262.84091,276.64774 a 61.875,28.125 0 1 1 -123.75,0 61.875,28.125 0 1 1 123.75,0 z"
         transform="matrix(0.76741684,-1.1613112,2.171115,1.4224368,-560.88858,217.68859)"
         style="fill:#bc1142"
         id="path5623" />
      <path
         d="m 262.84091,276.64774 a 61.875,28.125 0 1 1 -123.75,0 61.875,28.125 0 1 1 123.75,0 z"
         transform="matrix(-0.76741684,-1.1613112,-2.171115,1.4224368,1134.8288,213.68859)"
         style="fill:#bc1142"
         id="path5625" />
      <path
         d="M 72.910253,342.0878 C 109.32447,332.33088 85.201845,492.72431 55.576871,479.56357 22.990103,453.35089 12.493801,376.58814 72.910253,342.0878 Z"
         style="fill:#bc1142"
         id="path5627" />
      <path
         d="m 493.67828,340.0878 c -36.41422,-9.75692 -12.2916,150.63651 17.33338,137.47577 32.58677,-26.21268 43.08307,-102.97543 -17.33338,-137.47577 z"
         style="fill:#bc1142"
         id="path5629" />
      <path
         d="m 369.97158,220.6534 c 62.83486,-10.61013 115.11594,26.72229 113.01138,94.85796 -2.06693,26.12112 -136.15872,-90.96907 -113.01138,-94.85796 z"
         style="fill:#bc1142"
         id="path5631" />
      <path
         d="M 196.35975,218.6534 C 133.52489,208.04327 81.24381,245.37569 83.34837,313.51136 85.4153,339.63248 219.50709,222.54229 196.35975,218.6534 Z"
         style="fill:#bc1142"
         id="path5633" />
      <path
         d="m 286.61932,202.75568 c -37.50259,-0.97548 -73.49548,27.83418 -73.58158,44.54443 -0.10462,20.30426 29.6512,41.09266 73.83726,41.62035 45.12305,0.32321 73.91561,-16.64049 74.0611,-37.59409 0.16484,-23.73996 -41.03879,-48.93744 -74.31678,-48.57069 z"
         style="fill:#bc1142"
         id="path5635" />
      <path
         d="m 288.90937,619.11675 c 32.69744,-1.42711 76.57083,10.53196 76.6568,26.39598 0.5427,15.4052 -39.78969,50.21055 -78.82634,49.53765 -40.42729,1.74391 -80.06908,-33.11559 -79.54951,-45.19859 -0.60506,-17.71593 49.226,-31.54796 81.71905,-30.73504 z"
         style="fill:#bc1142"
         id="path5637" />
      <path
         d="m 168.13874,525.10369 c 23.2791,28.04573 33.89066,77.31899 14.46355,91.84353 -18.37917,11.08784 -63.01228,6.52162 -94.736237,-39.05157 -21.395052,-38.24168 -18.637584,-77.15663 -3.615887,-88.58924 22.464424,-13.68429 57.173424,4.79902 83.888574,35.79728 z"
         style="fill:#bc1142"
         id="path5639" />
      <path
         d="m 405.0209,516.21177 c -25.18682,29.50165 -39.21227,83.30951 -20.83785,100.6428 17.56828,13.46361 64.7292,11.58162 99.56566,-36.75574 25.29599,-32.46471 16.82013,-86.68225 2.37077,-101.07511 -21.46408,-16.60213 -52.27691,4.64489 -81.09858,37.18805 z"
         style="fill:#bc1142"
         id="path5641" />
    </g>
  </g>
  <g
     inkscape:groupmode="layer"
     id="layer4"
     inkscape:label="text">
    <text
       xml:space="preserve"
       transform="matrix(0.26458333,0,0,0.26458333,-5.4859424,-6.6819684)"
       id="text18809"
       style="font-style:normal;font-variant:normal;font-weight:normal;font-stretch:normal;font-size:85.3333px;line-height:1.25;font-family:octicons;-inkscape-font-specification:octicons;white-space:pre;shape-inside:url(#rect18811);fill:#ffffff;fill-opacity:1;stroke:none"><tspan
         x="304.98438"
         y="261.1833"
         id="tspan116606">macro pad</tspan></text>
  </g>
</svg>
